<svg xmlns="http://www.w3.org/2000/svg" xmlns:xlink="http://www.w3.org/1999/xlink" version="1.1" id="Layer_1" x="0" y="0"  viewBox="0 0 159.9 159.9" xml:space="preserve">

                <style type="text/css">

                  

                .st0{fill:none;stroke:#0855A2;stroke-width:13.913;stroke-miterlimit:10;}

                .st1{fill:none;stroke:#DE202B;stroke-width:13.9132;stroke-miterlimit:10;}

                .st2{fill:none;stroke:#DE212B;stroke-width:13.913;stroke-miterlimit:10;}

                .st3{fill:none;stroke:#0854A2;stroke-width:13.9132;stroke-miterlimit:10;}

                .st4{fill:#DE202B;}



                @-webkit-keyframes w70 {

                  from { stroke-dashoffset: 150; }

                  to { stroke-dashoffset: 0; }

                }



                @-webkit-keyframes fillCircle {

                  from { fill: #fff }

                  to { fill: #DE202B }

                }







                #q1, #q2 {

                  stroke-dasharray: 150;

                  stroke-dashoffset: 150;

                  -webkit-animation: w70 400ms linear 800ms forwards;

                }    





                #q3, #q4 {

                  stroke-dasharray: 150;

                  stroke-dashoffset: 150;

                  -webkit-animation: w70 400ms linear 1300ms forwards;

                  

                }    





                #rt{

                  stroke-dasharray: 150;

                  stroke-dashoffset: 150;

                  -webkit-animation: w70 500ms linear forwards;

                }



                #rb{

                  stroke-dasharray: 150;

                  stroke-dashoffset: 150;

                  -webkit-animation: w70 500ms linear 300ms both;

                }



                #rl{

                  stroke-dasharray: 150;

                  stroke-dashoffset: 150;

                  -webkit-animation: w70 500ms linear 1700ms forwards;

                }



                #cc{

                  -webkit-animation: fillCircle 800ms linear 2100ms both;

                }









                </style>

                <path id="q1" class="st3" d="M80 130.4c27.9 0 50.5-22.6 50.5-50.5"/>

                <path id="q2" class="st3" d="M80 29.5c27.9 0 50.5 22.6 50.5 50.5"/>

                <path id="q3" class="st1" d="M79.9 29.5c-27.9 0-50.5 22.6-50.5 50.5"/>

                <path id="q4" class="st1" d="M79.9 130.4c-27.9 0-50.5-22.6-50.5-50.5"/>

                <path id="cc" class="st4" d="M86.9 79.9c0 3.8-3.1 7-7 7l0 0c-3.8 0-7-3.1-7-7l0 0c0-3.8 3.1-7 7-7l0 0C83.8 73 86.9 76.1 86.9 79.9L86.9 79.9z"/>

                <line id="rt" class="st0" x1="79.9" y1="6.3" x2="79.9" y2="52.6"/>

                <line id="rb" class="st0" x1="79.9" y1="153.6" x2="79.9" y2="107.3"/>

                <line id="rl" class="st2" x1="29.4" y1="79.9" x2="60.9" y2="79.9"/>

              </svg>