<?xml version="1.0" encoding="utf-8"?>
<!-- Generator: Adobe Illustrator 16.0.0, SVG Export Plug-In . SVG Version: 6.00 Build 0)  -->
<!DOCTYPE svg PUBLIC "-//W3C//DTD SVG 1.1//EN" "http://www.w3.org/Graphics/SVG/1.1/DTD/svg11.dtd">
<svg version="1.1" id="Layer_1" xmlns="http://www.w3.org/2000/svg" xmlns:xlink="http://www.w3.org/1999/xlink" x="0px" y="0px"
	 width="100px" height="100px" viewBox="0 0 100 100" enable-background="new 0 0 100 100" xml:space="preserve">
<path fill="#D81F2C" d="M70.687,63.79c0.389-0.644,0.681-1.098,0.875-1.36l21.463-37.297c4.472,7.706,6.705,15.998,6.705,24.867
	c0,1.813-0.131,3.85-0.392,6.116L70.687,63.79z M74.377,45.145l-0.389-1.557L62.918,2.021c10.684,2.851,19.425,8.646,26.22,17.383
	L74.377,45.145z M63.792,29.312c-0.713-0.453-1.166-0.742-1.36-0.874L25.135,6.974c7.704-4.467,15.994-6.701,24.863-6.701
	c1.813,0,3.854,0.131,6.12,0.388L63.792,29.312z M45.143,25.619l-1.553,0.388L2.019,37.084c2.85-10.683,8.644-19.427,17.385-26.228
	L45.143,25.619z M29.312,36.21c-0.454,0.71-0.746,1.163-0.874,1.36L6.972,74.867C2.505,67.161,0.271,58.869,0.271,50
	c0-1.813,0.131-3.85,0.39-6.116L29.312,36.21z M25.621,54.855c0.193,0.841,0.323,1.359,0.388,1.557L37.082,97.98
	c-10.685-2.852-19.426-8.647-26.224-17.384L25.621,54.855z M36.206,70.688c0.714,0.454,1.167,0.743,1.36,0.874l37.296,21.464
	c-7.703,4.468-15.99,6.701-24.864,6.701c-1.813,0-3.853-0.131-6.117-0.388L36.206,70.688z M54.857,74.381
	c0.906-0.197,1.426-0.329,1.55-0.395l41.571-11.07c-2.848,10.683-8.644,19.428-17.387,26.228L54.857,74.381z"/>
</svg>
