<?xml version="1.0" encoding="utf-8"?>
<!-- Generator: Adobe Illustrator 16.0.0, SVG Export Plug-In . SVG Version: 6.00 Build 0)  -->
<!DOCTYPE svg PUBLIC "-//W3C//DTD SVG 1.1//EN" "http://www.w3.org/Graphics/SVG/1.1/DTD/svg11.dtd">
<svg version="1.1" id="Layer_1" xmlns="http://www.w3.org/2000/svg" xmlns:xlink="http://www.w3.org/1999/xlink" x="0px" y="0px"
	 width="100px" height="100px" viewBox="0 0 100 100" enable-background="new 0 0 100 100" xml:space="preserve">
<g>
	<g>
		<g id="g3057" transform="translate(-242.85,-277.09648)">
			<path id="path3059" fill="#FFFFFF" d="M296.237,308.026l10.821,11.123l-48.397,53.512c-2.105,2.255-5.858,2.255-8.115,0
				l-5.865-6.021c-2.255-2.102-2.255-5.858,0-8.116L296.237,308.026z M341.635,319.448l-8.115,8.266c-1.648,1.655-4.21,1.655-6.01,0
				l-1.814-1.954c-1.349-1.204-1.951-3.46-1.197-4.504c1.347-0.907,0.908-3.609-1.649-6.015c-3.617-3.759-8.267-3.908-10.069-1.955
				c-0.754,0.599-3.16,3.158-3.16,3.158l-11.125-10.977l1.801-1.802c0,0,0.455-0.448,1.356-1.502
				c3.454-3.459-0.147-7.367-0.147-7.367c-9.776-9.619-23.447-9.469-23.447-9.469l-0.153-3.459
				c27.504-7.062,37.875,4.962,41.631,8.72c3.463,3.457,7.068,7.062,7.977,7.966c1.954,1.958,0,7.518,2.849,10.671
				c1.356,1.353,3.161,1.958,4.509,1.958c1.502-1.356,3.908-0.904,5.119,0.449l1.648,1.8
				C343.286,315.089,343.286,317.646,341.635,319.448z"/>
		</g>
	</g>
</g>
</svg>
