<?xml version="1.0" encoding="utf-8"?>
<!-- Generator: Adobe Illustrator 16.0.0, SVG Export Plug-In . SVG Version: 6.00 Build 0)  -->
<!DOCTYPE svg PUBLIC "-//W3C//DTD SVG 1.1//EN" "http://www.w3.org/Graphics/SVG/1.1/DTD/svg11.dtd">
<svg version="1.1" id="Layer_1" xmlns="http://www.w3.org/2000/svg" xmlns:xlink="http://www.w3.org/1999/xlink" x="0px" y="0px"
	 width="100px" height="100px" viewBox="0 0 100 100" enable-background="new 0 0 100 100" xml:space="preserve">
<g>
	<g>
		<g id="g3057" transform="translate(-242.85,-277.09648)">
			<path id="path3059"  fill="#D81F2C" d="M296.237,308.026l10.821,11.123l-48.397,53.512
				c-2.105,2.255-5.858,2.255-8.115,0l-5.865-6.022c-2.255-2.101-2.255-5.858,0-8.116L296.237,308.026z M341.635,319.448
				l-8.115,8.266c-1.649,1.655-4.21,1.655-6.01,0l-1.814-1.954c-1.349-1.204-1.952-3.46-1.198-4.504
				c1.347-0.907,0.908-3.609-1.649-6.015c-3.617-3.759-8.266-3.908-10.07-1.955c-0.753,0.599-3.159,3.158-3.159,3.158
				l-11.126-10.977l1.802-1.802c0,0,0.454-0.448,1.356-1.502c3.454-3.459-0.147-7.367-0.147-7.367
				c-9.777-9.619-23.448-9.469-23.448-9.469l-0.153-3.459c27.505-7.062,37.876,4.962,41.632,8.72
				c3.462,3.457,7.068,7.062,7.976,7.966c1.954,1.958,0,7.518,2.849,10.671c1.356,1.353,3.161,1.958,4.509,1.958
				c1.502-1.356,3.908-0.904,5.119,0.449l1.648,1.8C343.285,315.089,343.285,317.646,341.635,319.448z"/>
		</g>
	</g>
</g>
</svg>
