<?xml version="1.0" encoding="utf-8"?>
<!-- Generator: Adobe Illustrator 16.0.0, SVG Export Plug-In . SVG Version: 6.00 Build 0)  -->
<!DOCTYPE svg PUBLIC "-//W3C//DTD SVG 1.1//EN" "http://www.w3.org/Graphics/SVG/1.1/DTD/svg11.dtd">
<svg version="1.1" id="Layer_1" xmlns="http://www.w3.org/2000/svg" xmlns:xlink="http://www.w3.org/1999/xlink" x="0px" y="0px"
	 width="100px" height="100px" viewBox="0 0 100 100" enable-background="new 0 0 100 100" xml:space="preserve">
<g>
	<g id="mic">
		<path fill="#FFFFFF" d="M64.904,51.38c0,7.318-5.985,13.31-13.309,13.31h-3.195c-7.316,0-13.307-5.99-13.307-13.31V13.405
			c0-7.318,5.99-13.304,13.307-13.304h3.195c7.322,0,13.309,5.986,13.309,13.304V51.38z"/>
		<path fill="#FFFFFF" d="M79.15,42.748h-2.485c-1.364,0-2.485,1.121-2.485,2.485v2.222c0,13.93-10.283,25.229-24.214,25.229
			c-13.935,0-24.149-11.299-24.149-25.229v-2.222c0-1.364-1.115-2.485-2.483-2.485h-2.485c-1.364,0-2.484,1.121-2.484,2.485v2.222
			c0,16.313,11.154,29.835,26.633,32.258v10.245h-9.54c-1.367,0-2.483,1.121-2.483,2.487v4.969c0,1.367,1.116,2.484,2.483,2.484
			h29.021c1.365,0,2.484-1.117,2.484-2.484v-4.969c0-1.366-1.119-2.487-2.484-2.487h-9.539V79.713
			C70.43,77.29,81.639,63.77,81.639,47.455v-2.222C81.637,43.869,80.518,42.748,79.15,42.748z"/>
	</g>
</g>
</svg>
